<?xml version="1.0" encoding="utf-8"?>
<!-- Generator: Adobe Illustrator 24.3.0, SVG Export Plug-In . SVG Version: 6.00 Build 0)  -->
<svg version="1.1" id="Layer_1" xmlns="http://www.w3.org/2000/svg" xmlns:xlink="http://www.w3.org/1999/xlink" x="0px" y="0px"
	 viewBox="0 0 24 32" style="enable-background:new 0 0 24 32;" xml:space="preserve">
<style type="text/css">
	.st0{fill:#FFFFFF;}
</style>
<path class="st0" d="M22.9,12.2c0-0.7-1.3-1.2-1.4-1.9c-0.1-0.7,0.8-1.7,0.6-2.3c-0.3-0.6-1.7-0.6-2-1.2c-0.4-0.6,0.1-1.9-0.3-2.3
	c-0.5-0.5-1.8,0-2.3-0.3c-0.6-0.4-0.6-1.8-1.2-2c-0.6-0.3-1.6,0.7-2.3,0.6c-0.6-0.1-1.2-1.4-1.9-1.4s-1.2,1.3-1.9,1.4
	C9.4,2.8,8.4,1.9,7.8,2.1c-0.6,0.3-0.6,1.7-1.2,2C6.1,4.5,4.8,4,4.3,4.5C3.8,4.9,4.3,6.2,4,6.8C3.6,7.4,2.2,7.4,1.9,8
	c-0.3,0.6,0.7,1.6,0.6,2.3c-0.1,0.6-1.4,1.2-1.4,1.9s1.3,1.2,1.4,1.9c0.1,0.7-0.8,1.7-0.6,2.3C2.2,17,3.6,17,4,17.5
	c0.4,0.6-0.1,1.9,0.3,2.3c0.5,0.5,1.8,0,2.3,0.3c0.6,0.4,0.6,1.8,1.2,2c0.6,0.3,1.6-0.7,2.3-0.6c0.6,0.1,1.2,1.4,1.9,1.4
	s1.2-1.3,1.9-1.4c0.7-0.1,1.7,0.8,2.3,0.6c0.6-0.3,0.6-1.7,1.2-2c0.6-0.4,1.9,0.1,2.3-0.3c0.5-0.5,0-1.8,0.3-2.3
	c0.4-0.6,1.8-0.6,2-1.2c0.3-0.6-0.7-1.6-0.6-2.3C21.6,13.4,22.9,12.9,22.9,12.2z M12,19.3c-4,0-7.2-3.2-7.2-7.2S8,5,12,5
	s7.2,3.2,7.2,7.2S16,19.3,12,19.3z"/>
<circle class="st0" cx="12" cy="12.2" r="6.4"/>
<path class="st0" d="M11.4,23.5l-2.3,6.7c-0.2,0.5-0.9,0.6-1.2,0.1l-1.4-2.7c-0.1-0.3-0.4-0.4-0.7-0.3l-2.6,0.7
	c-0.6,0.1-1-0.5-0.7-0.9l3.7-6.3c0.1,0,0.2,0,0.2,0c0,0,0.1,0,0.1,0.2c0.1,0.1,0.1,0.3,0.2,0.5c0.2,0.5,0.4,1.1,1,1.4
	c0.1,0.1,0.3,0.1,0.4,0.1c0.4,0,0.8-0.2,1.2-0.4c0.3-0.1,0.6-0.3,0.7-0.3c0,0,0,0,0,0c0,0,0.1,0,0.2,0.1c0.1,0.1,0.2,0.2,0.4,0.4
	C10.8,23,11.1,23.3,11.4,23.5z"/>
<path class="st0" d="M20.8,27.9l-2.6-0.7c-0.3-0.1-0.6,0.1-0.7,0.3l-1.4,2.7c-0.3,0.5-1,0.5-1.2-0.1l-2.3-6.7
	c0.3-0.2,0.6-0.5,0.8-0.8c0.1-0.1,0.3-0.3,0.4-0.4c0.1-0.1,0.2-0.1,0.2-0.1c0,0,0,0,0,0c0.2,0,0.5,0.1,0.7,0.3
	c0.4,0.2,0.8,0.4,1.2,0.4c0.2,0,0.3,0,0.4-0.1c0.6-0.2,0.8-0.8,1-1.4c0.1-0.2,0.1-0.4,0.2-0.5c0.1-0.2,0.1-0.2,0.1-0.2
	c0,0,0.1,0,0.2,0h0l3.7,6.3C21.8,27.5,21.4,28,20.8,27.9z"/>
<path class="st0" d="M11.2,14.5c-0.2,0-0.3-0.1-0.5-0.2l-1.8-1.8c-0.3-0.3-0.3-0.7,0-0.9c0.3-0.3,0.7-0.3,0.9,0l1.3,1.3l2.7-2.7
	c0.3-0.3,0.7-0.3,0.9,0c0.3,0.3,0.3,0.7,0,0.9l-3.1,3.1C11.5,14.4,11.3,14.5,11.2,14.5z"/>
</svg>
