<?xml version="1.0" encoding="utf-8"?>
<!-- Generator: Adobe Illustrator 24.3.0, SVG Export Plug-In . SVG Version: 6.00 Build 0)  -->
<svg version="1.1" id="Layer_1" xmlns="http://www.w3.org/2000/svg" xmlns:xlink="http://www.w3.org/1999/xlink" x="0px" y="0px"
	 viewBox="0 0 41 41" style="enable-background:new 0 0 41 41;" xml:space="preserve">
<style type="text/css">
	.st0{clip-path:url(#SVGID_2_);}
	.st1{fill-rule:evenodd;clip-rule:evenodd;fill:url(#SVGID_3_);}
</style>
<g>
	<defs>
		<polygon id="SVGID_1_" points="40.7,16.8 16.7,0 0,24.1 24,40.9 		"/>
	</defs>
	<clipPath id="SVGID_2_">
		<use xlink:href="#SVGID_1_"  style="overflow:visible;"/>
	</clipPath>
	<g class="st0">
		<g>
			
				<radialGradient id="SVGID_3_" cx="-321.7616" cy="853.0967" r="1" gradientTransform="matrix(-14.4333 18.3086 18.3136 14.4373 -20238.4707 -6412.2095)" gradientUnits="userSpaceOnUse">
				<stop  offset="0.5764" style="stop-color:#FFBB0C"/>
				<stop  offset="1" style="stop-color:#FFC907"/>
			</radialGradient>
			<path class="st1" d="M21,18.2l4.8-6.9c0.6-0.8,1.7-1,2.5-0.5c0.8,0.6,1,1.7,0.5,2.6L24,20.3l0.3,0.2l4.4-5.3
				c0.8-0.9,2.2-1.1,3.1-0.3c0.9,0.8,1.1,2.2,0.3,3.1L27.9,23l0.2,0.1c0.3,0.2,0.5,0.5,0.6,0.8l0.8-0.3c1.3-0.5,2.8,0.2,3.3,1.5
				c0.5,1.3-0.2,2.8-1.6,3.3l-6.5,2.4l-1.7,2.5c-0.6,0.8-1.7,1.2-2.6,0.8c-1.8-0.7-4.6-1.9-6.5-3.2c-1.9-1.3-4.1-3.8-5.3-5.2
				c-0.6-0.7-0.6-1.6-0.1-2.4l3.3-4.7c0-0.3,0-0.5,0.1-0.8l2.4-7.6c0.3-1,1.3-1.5,2.3-1.2c1,0.3,1.5,1.3,1.2,2.3l-1.2,3.6
				c0.1,0,0.1,0.1,0.2,0.1l0.3,0.2L20.1,9c0.4-0.9,1.5-1.3,2.4-0.8c0.9,0.4,1.3,1.5,0.8,2.5L20,17.5L21,18.2z"/>
		</g>
	</g>
</g>
</svg>
